<svg width="46" height="46" viewBox="0 0 46 46" fill="none" xmlns="http://www.w3.org/2000/svg">
<mask id="mask0_1203_3040" style="mask-type:luminance" maskUnits="userSpaceOnUse" x="0" y="0" width="46" height="46">
<path d="M0 0H46V46H0V0Z" fill="white"/>
</mask>
<g mask="url(#mask0_1203_3040)">
<path d="M16.9246 16.773V30.4028C16.9246 31.6148 16.4753 32.7585 15.6994 33.635C14.7716 34.6832 13.5554 36.0162 13.5554 37.416" stroke="#3A3A3A" stroke-width="2.5" stroke-miterlimit="10"/>
<path d="M10.1912 17.9277V30.3948C10.1912 31.6067 10.6406 32.7505 11.4164 33.627C12.3441 34.6752 13.5603 36.0081 13.5603 37.408V40.2588C13.5603 42.6777 15.5212 44.6387 17.9402 44.6387C20.3591 44.6387 22.3201 42.6777 22.3201 40.2588V34.9396C22.3201 31.9624 24.7335 29.5491 27.7107 29.5491C30.6878 29.5491 33.1013 31.9624 33.1013 34.9396V41.9434C33.1013 43.432 31.8945 44.6387 30.406 44.6387C28.9175 44.6387 27.7107 43.432 27.7107 41.9434C27.7107 40.4548 28.9175 39.248 30.406 39.248H45.9939" stroke="#3A3A3A" stroke-width="2.5" stroke-miterlimit="10"/>
<path d="M30.0466 4.36227V14.9219" stroke="#3A3A3A" stroke-width="2.5" stroke-miterlimit="10"/>
<path d="M1.34766 15.3774C3.55898 16.9435 6.79398 17.9316 10.3988 17.9316C12.4825 17.9316 14.4428 17.6016 16.1533 17.0205C20.1473 15.6636 25.831 14.9147 30.0491 14.9147C30.0491 14.9147 32.6463 15.931 36.5401 16.2952C38.0816 16.4394 39.2617 17.731 39.2617 19.2793V-0.00970769C39.2617 1.53866 38.0816 2.83025 36.5401 2.97445C32.6463 3.33859 30.0491 4.35499 30.0491 4.35499C25.831 4.35499 20.1473 3.60596 16.1533 2.24914C14.4428 1.66812 12.4825 1.33795 10.3988 1.33795C6.79398 1.33795 3.55898 2.32614 1.34766 3.8923V15.3774Z" stroke="#3A3A3A" stroke-width="2.5" stroke-miterlimit="10"/>
<path d="M16.9294 22.1543H20.9724" stroke="#3A3A3A" stroke-width="2.5" stroke-miterlimit="10"/>
<path d="M1.34766 9.63086H10.1973" stroke="#3A3A3A" stroke-width="2.5" stroke-miterlimit="10"/>
<path d="M10.1912 17.9414V1.34771" stroke="#3A3A3A" stroke-width="2.5" stroke-miterlimit="10"/>
<path d="M26.0037 9.63086H23.3083" stroke="#3A3A3A" stroke-width="2.5" stroke-miterlimit="10"/>
</g>
</svg>
