<svg width="46" height="46" viewBox="0 0 46 46" fill="none" xmlns="http://www.w3.org/2000/svg">
<g clip-path="url(#clip0_1203_2332)">
<path d="M38.1566 0H7.84346C5.11042 0 2.88696 2.22336 2.88696 4.95632V41.0436C2.88696 43.7765 5.11042 46 7.84346 46H38.1566C40.8896 46 43.1131 43.7765 43.1131 41.0436V4.95632C43.1131 2.22336 40.8896 0 38.1566 0ZM40.4178 4.95632V11.5479H17.1302V2.69531H38.1566C39.4034 2.69531 40.4178 3.70956 40.4178 4.95632ZM7.84346 2.69531H14.4348V11.5479H5.58228V4.95632C5.58228 3.70956 6.59661 2.69531 7.84346 2.69531ZM38.1566 43.3047H7.84346C6.5967 43.3047 5.58228 42.2904 5.58228 41.0436V14.2432H40.4178V41.0436C40.4178 42.2904 39.4034 43.3047 38.1566 43.3047Z" fill="#3A3A3A"/>
<path d="M23.4906 8.07353C23.7413 8.32509 24.089 8.46875 24.4438 8.46875C24.7978 8.46875 25.1455 8.325 25.3962 8.07353C25.6469 7.82286 25.7915 7.47607 25.7915 7.12109C25.7915 6.76612 25.6469 6.41861 25.3962 6.16794C25.1455 5.91728 24.7987 5.77344 24.4438 5.77344C24.089 5.77344 23.7413 5.91728 23.4906 6.16794C23.2399 6.41861 23.0962 6.76621 23.0962 7.12109C23.0962 7.47598 23.2399 7.82286 23.4906 8.07353Z" fill="#3A3A3A"/>
<path d="M10.0085 8.46875C10.3634 8.46875 10.7102 8.325 10.9618 8.07353C11.2125 7.82286 11.3562 7.47607 11.3562 7.12109C11.3562 6.76612 11.2125 6.41861 10.9618 6.16794C10.7111 5.91728 10.3634 5.77344 10.0085 5.77344C9.65366 5.77344 9.30597 5.91728 9.0553 6.16794C8.80464 6.41861 8.66089 6.76612 8.66089 7.12109C8.66089 7.47607 8.80464 7.82286 9.0553 8.07353C9.30687 8.325 9.65456 8.46875 10.0085 8.46875Z" fill="#3A3A3A"/>
<path d="M30.217 8.46875C30.5719 8.46875 30.9196 8.325 31.1703 8.07353C31.4209 7.82286 31.5647 7.47607 31.5647 7.12109C31.5647 6.76612 31.4209 6.41861 31.1703 6.16794C30.9196 5.91728 30.5728 5.77344 30.217 5.77344C29.8622 5.77344 29.5154 5.91728 29.2647 6.16794C29.014 6.41861 28.8694 6.76621 28.8694 7.12109C28.8694 7.47598 29.014 7.82286 29.2647 8.07353C29.5154 8.325 29.8631 8.46875 30.217 8.46875Z" fill="#3A3A3A"/>
<path d="M35.9915 8.46875C36.3463 8.46875 36.6931 8.325 36.9447 8.07353C37.1954 7.82286 37.3391 7.47607 37.3391 7.12109C37.3391 6.76612 37.1954 6.41861 36.9447 6.16794C36.694 5.91728 36.3463 5.77344 35.9915 5.77344C35.6366 5.77344 35.2889 5.91728 35.0382 6.16794C34.7875 6.41861 34.6438 6.76621 34.6438 7.12109C34.6438 7.47598 34.7875 7.82286 35.0382 8.07353C35.2898 8.325 35.6366 8.46875 35.9915 8.46875Z" fill="#3A3A3A"/>
<path d="M34.5478 27.4267H34.3723C33.7032 21.7448 28.8587 17.3223 23 17.3223C16.6853 17.3223 11.5479 22.4597 11.5479 28.7744C11.5479 35.089 16.6853 40.2264 23 40.2264C28.8587 40.2264 33.7032 35.8038 34.3724 30.1219H34.5479C35.2922 30.1219 35.8956 29.5186 35.8956 28.7743C35.8956 28.03 35.2921 27.4267 34.5478 27.4267ZM23 37.5311C18.1715 37.5311 14.2432 33.6028 14.2432 28.7743C14.2432 23.9458 18.1715 20.0176 23 20.0176C27.8284 20.0176 31.7568 23.9459 31.7568 28.7744C31.7568 33.6029 27.8284 37.5311 23 37.5311Z" fill="#3A3A3A"/>
</g>
<defs>
<clipPath id="clip0_1203_2332">
<rect width="46" height="46" fill="white"/>
</clipPath>
</defs>
</svg>
