<svg width="46" height="46" viewBox="0 0 46 46" fill="none" xmlns="http://www.w3.org/2000/svg">
<g clip-path="url(#clip0_1203_3066)">
<path d="M43.2349 18.5167C42.7086 17.9903 41.8553 17.9903 41.3291 18.5166C40.8028 19.0429 40.8028 19.8961 41.3291 20.4224C41.8558 20.9493 41.8558 21.8015 41.3291 22.3283C40.8017 22.8556 40.0065 22.8555 39.4793 22.3283L35.6675 18.5166C33.3665 16.2155 29.8018 15.93 27.1871 17.6595L26.1383 16.6107C24.8961 15.3685 23.0401 15.1059 21.5375 15.8217L6.89982 1.18411C5.32352 -0.392099 2.75859 -0.392099 1.18229 1.18411C-0.394097 2.76041 -0.394097 5.32534 1.18229 6.90173L15.8198 21.5393C15.104 23.0418 15.3666 24.8977 16.6088 26.14L17.6569 27.1881C15.939 29.7754 16.1865 33.3411 18.5148 35.6694C18.5149 35.6695 18.515 35.6696 18.5152 35.6698L24.2324 41.387C26.8592 44.014 31.1207 44.0279 33.7645 41.3842C40.3978 34.744 39.3759 35.7439 43.2348 31.8577C46.9216 28.171 46.9221 22.2037 43.2349 18.5167ZM17.5619 19.4695L3.08823 4.99589C2.56282 4.47049 2.56282 3.61545 3.08823 3.09004C3.61354 2.56473 4.46849 2.56446 4.99407 3.09004L19.4678 17.5638L19.1501 17.8814L17.5619 19.4695ZM18.5147 24.2341C17.9892 23.7086 17.9892 22.8537 18.5147 22.3283L22.3264 18.5166C22.8519 17.9913 23.7068 17.9912 24.2324 18.5166L25.1853 19.4695L19.4676 25.1871L18.5147 24.2341ZM20.4207 28.0459L28.0442 20.4224C29.287 19.1794 31.1437 18.9174 32.6455 19.6328L19.6297 32.6486C18.9256 31.1777 19.1524 29.3142 20.4207 28.0459ZM42.2816 28.7536C40.7364 29.5824 38.8364 29.3089 37.5734 28.0459C37.0473 27.5197 36.1939 27.5196 35.6675 28.0459C35.1412 28.5722 35.1412 29.4254 35.6675 29.9517C36.7252 31.0095 38.0508 31.6521 39.4361 31.8559L39.1132 32.1807C37.5282 33.4244 35.2213 33.3174 33.7615 31.8577C33.2353 31.3315 32.382 31.3314 31.8557 31.8577C31.3294 32.384 31.3294 33.2372 31.8557 33.7635C32.9224 34.8302 34.2607 35.4637 35.65 35.6642L35.4178 35.8978C34.689 36.5159 33.7749 36.8535 32.8085 36.8535C31.7285 36.8535 30.7134 36.4329 29.9497 35.6694C29.4235 35.1431 28.5702 35.1431 28.0439 35.6694C27.5176 36.1957 27.5176 37.0489 28.0439 37.5752C29.089 38.6203 30.4172 39.2789 31.8553 39.4814C30.2753 41.0609 27.7181 41.0614 26.138 39.481L21.3734 34.7164L34.7147 21.3754C34.8513 21.512 37.4139 24.0745 37.5809 24.2417C39.1613 25.814 41.658 25.8111 43.2349 24.2342C43.2353 24.2338 43.2357 24.2334 43.2361 24.233C43.4525 25.771 43.147 27.3726 42.2816 28.7536Z" fill="#3A3A3A"/>
<path d="M39.2597 8.26561H37.9121V6.91796C37.9121 6.1737 37.3087 5.57031 36.5644 5.57031C35.8202 5.57031 35.2168 6.1737 35.2168 6.91796V8.26561H33.8691C33.1249 8.26561 32.5215 8.869 32.5215 9.61326C32.5215 10.3575 33.1249 10.9609 33.8691 10.9609H35.2168V12.3086C35.2168 13.0528 35.8202 13.6562 36.5644 13.6562C37.3087 13.6562 37.9121 13.0528 37.9121 12.3086V10.9609H39.2597C40.004 10.9609 40.6074 10.3575 40.6074 9.61326C40.6074 8.869 40.004 8.26561 39.2597 8.26561Z" fill="#3A3A3A"/>
<path d="M15.0019 40.6074H13.6543V39.2598C13.6543 38.5155 13.0509 37.9121 12.3066 37.9121C11.5624 37.9121 10.959 38.5155 10.959 39.2598V40.6074H9.61132C8.86706 40.6074 8.26367 41.2108 8.26367 41.9551C8.26367 42.6993 8.86706 43.3027 9.61132 43.3027H10.959V44.6504C10.959 45.3946 11.5624 45.998 12.3066 45.998C13.0509 45.998 13.6543 45.3946 13.6543 44.6504V43.3027H15.0019C15.7462 43.3027 16.3496 42.6993 16.3496 41.9551C16.3496 41.2108 15.7462 40.6074 15.0019 40.6074Z" fill="#3A3A3A"/>
<path d="M6.91624 27.1328C4.68696 27.1328 2.87329 28.9465 2.87329 31.1758C2.87329 33.405 4.68696 35.2187 6.91624 35.2187C9.14552 35.2187 10.9592 33.405 10.9592 31.1758C10.9592 28.9465 9.14543 27.1328 6.91624 27.1328ZM6.91624 32.5234C6.17314 32.5234 5.56859 31.9189 5.56859 31.1758C5.56859 30.4327 6.17314 29.8281 6.91624 29.8281C7.65933 29.8281 8.26388 30.4327 8.26388 31.1758C8.26388 31.9189 7.65933 32.5234 6.91624 32.5234Z" fill="#3A3A3A"/>
</g>
<defs>
<clipPath id="clip0_1203_3066">
<rect width="46" height="46" fill="white"/>
</clipPath>
</defs>
</svg>
