<svg width="46" height="46" viewBox="0 0 46 46" fill="none" xmlns="http://www.w3.org/2000/svg">
<g clip-path="url(#clip0_1203_2300)">
<path d="M22.5625 8.08594H27.9531V0C26.213 0 12.5477 0 10.4336 0C5.23191 0 1 4.23191 1 9.43359V10.7812H6.39062V12.6605C6.39062 15.5723 5.53684 18.3921 3.92163 20.815C2.01029 23.682 1 27.0187 1 30.4645V46H22.5625V32.1125C22.5625 29.2945 21.4651 26.6451 19.4725 24.6525C17.9889 23.1689 17.172 21.1965 17.1719 19.0984V10.7812H19.8672C19.8672 13.7536 22.2854 16.1719 25.2578 16.1719V13.4766C23.7716 13.4766 22.5625 12.2674 22.5625 10.7812C22.5625 9.83861 22.5625 9.02858 22.5625 8.08594ZM25.2578 2.69531V5.39062H22.5625V2.69531H25.2578ZM17.5667 26.5583C19.0501 28.0419 19.8672 30.0145 19.8672 32.1125V43.3047H3.69531V30.4645C3.69531 27.5527 4.5491 24.7329 6.16431 22.31C7.41646 20.4317 8.28184 18.3518 8.7298 16.1719H14.4766V19.0984C14.4767 21.9164 15.574 24.5658 17.5667 26.5583ZM14.4766 13.4766H9.06626C9.07884 13.2053 9.08594 12.9333 9.08594 12.6605V10.7812H14.4766V13.4766ZM3.83071 8.08594C4.45683 5.01409 7.17954 2.69531 10.4336 2.69531H19.8672V8.08594C17.8993 8.08594 5.18115 8.08594 3.83071 8.08594Z" fill="#3A3A3A"/>
<path d="M36.1556 2.6375H34.7075C34.1988 2.6375 33.7834 2.22819 33.7834 1.71875C33.7834 1.20931 34.1988 0.8 34.7075 0.8H36.1556C36.6642 0.8 37.0796 1.20931 37.0796 1.71875C37.0796 2.22819 36.6642 2.6375 36.1556 2.6375Z" fill="#3A3A3A" stroke="#3A3A3A" stroke-width="0.4"/>
<path d="M29.7241 0.8H31.1722C31.6808 0.8 32.0962 1.20931 32.0962 1.71875C32.0962 2.22819 31.6808 2.6375 31.1722 2.6375H29.7241C29.2154 2.6375 28.8 2.22819 28.8 1.71875C28.8 1.20931 29.2154 0.8 29.7241 0.8Z" fill="#3A3A3A" stroke="#3A3A3A" stroke-width="0.4"/>
<path d="M41.136 2.6375H39.6879C39.1793 2.6375 38.7639 2.22819 38.7639 1.71875C38.7639 1.20931 39.1793 0.8 39.6879 0.8H41.136C41.6447 0.8 42.0601 1.20931 42.0601 1.71875C42.0601 2.22819 41.6447 2.6375 41.136 2.6375Z" fill="#3A3A3A" stroke="#3A3A3A" stroke-width="0.4"/>
<path d="M37.0822 7.57183L37.0822 7.5718C37.2823 7.08264 36.9796 6.5546 36.5091 6.39407L36.5086 6.39392L36.5086 6.39392L35.1377 5.92976C35.1376 5.92975 35.1376 5.92973 35.1376 5.92972L35.1375 5.9297L35.0733 6.11913C34.6958 5.9909 34.2835 6.19151 34.1549 6.56691C34.0263 6.9423 34.2284 7.35121 34.6075 7.47961L37.0822 7.57183ZM37.0822 7.57183C36.9348 7.9318 36.6532 8.08172 36.412 8.13496C36.2937 8.16106 36.1841 8.16465 36.1007 8.16077C36.0246 8.15722 35.9537 8.14654 35.9145 8.13327L37.0822 7.57183Z" fill="#3A3A3A" stroke="#3A3A3A" stroke-width="0.4"/>
<path d="M32.0815 5.57169L32.0815 5.57176L30.9783 5.94306L30.9141 6.1325L30.9139 6.13244C30.9138 6.13238 30.9136 6.13233 30.9134 6.13227L29.543 5.66828L29.5429 5.66824C29.0612 5.50486 28.8003 4.98359 28.9652 4.50204C29.1299 4.02121 29.6563 3.76648 30.137 3.92965C30.1371 3.92965 30.1371 3.92966 30.1371 3.92967C30.1371 3.92968 30.1372 3.92969 30.1372 3.9297L31.5075 4.39378L31.5075 4.39379C31.9785 4.55334 32.2841 5.08166 32.0815 5.57169Z" fill="#3A3A3A" stroke="#3A3A3A" stroke-width="0.4"/>
<path d="M38.965 8.50169L38.9652 8.50135L40.9789 9.94246L40.9148 10.1319L40.9146 10.1318C40.9144 10.1318 40.9142 10.1317 40.9141 10.1317L39.5436 9.66767L39.5436 9.66766C39.0609 9.50413 38.8012 8.9829 38.965 8.50169Z" fill="#3A3A3A" stroke="#3A3A3A" stroke-width="0.4"/>
</g>
<defs>
<clipPath id="clip0_1203_2300">
<rect width="46" height="46" fill="white"/>
</clipPath>
</defs>
</svg>
