<svg width="46" height="46" viewBox="0 0 46 46" fill="none" xmlns="http://www.w3.org/2000/svg">
<path d="M18.6875 14.375V12.9375C18.6875 11.7938 18.2331 10.6969 17.4244 9.8881C16.6156 9.07935 15.5187 8.625 14.375 8.625V5.75H18.6875C19.0687 5.75 19.4344 5.59855 19.704 5.32897C19.9735 5.05938 20.125 4.69375 20.125 4.3125C20.125 3.93125 19.9735 3.56562 19.704 3.29603C19.4344 3.02645 19.0687 2.875 18.6875 2.875H12.9375C12.5563 2.875 12.1906 3.02645 11.921 3.29603C11.6515 3.56562 11.5 3.93125 11.5 4.3125V8.625C10.3563 8.625 9.25935 9.07935 8.4506 9.8881C7.64185 10.6969 7.1875 11.7938 7.1875 12.9375V14.375C6.04375 14.375 4.94685 14.8294 4.1381 15.6381C3.32935 16.4469 2.875 17.5438 2.875 18.6875V38.8125C2.875 39.9562 3.32935 41.0531 4.1381 41.8619C4.94685 42.6707 6.04375 43.125 7.1875 43.125H18.6875C19.8312 43.125 20.9281 42.6707 21.7369 41.8619C22.5456 41.0531 23 39.9562 23 38.8125V18.6875C23 17.5438 22.5456 16.4469 21.7369 15.6381C20.9281 14.8294 19.8312 14.375 18.6875 14.375ZM10.0625 12.9375C10.0625 12.5563 10.214 12.1906 10.4835 11.921C10.7531 11.6515 11.1188 11.5 11.5 11.5H14.375C14.7562 11.5 15.1219 11.6515 15.3915 11.921C15.661 12.1906 15.8125 12.5563 15.8125 12.9375V14.375H10.0625V12.9375ZM20.125 38.8125C20.125 39.1937 19.9735 39.5594 19.704 39.829C19.4344 40.0985 19.0687 40.25 18.6875 40.25H7.1875C6.80625 40.25 6.44062 40.0985 6.17103 39.829C5.90145 39.5594 5.75 39.1937 5.75 38.8125V18.6875C5.75 18.3063 5.90145 17.9406 6.17103 17.671C6.44062 17.4015 6.80625 17.25 7.1875 17.25H18.6875C19.0687 17.25 19.4344 17.4015 19.704 17.671C19.9735 17.9406 20.125 18.3063 20.125 18.6875V38.8125Z" fill="#3A3A3A"/>
<path d="M11.7544 23.6219C10.8129 24.9832 8.625 28.3513 8.625 30.1884C8.625 31.3321 9.07935 32.429 9.8881 33.2378C10.6969 34.0465 11.7938 34.5009 12.9375 34.5009C14.0812 34.5009 15.1781 34.0465 15.9869 33.2378C16.7956 32.429 17.25 31.3321 17.25 30.1884C17.25 28.3513 15.0621 24.9832 14.1206 23.6219C13.9812 23.4406 13.8021 23.2937 13.5969 23.1927C13.3918 23.0916 13.1662 23.0391 12.9375 23.0391C12.7088 23.0391 12.4832 23.0916 12.2781 23.1927C12.0729 23.2937 11.8938 23.4406 11.7544 23.6219ZM12.9375 31.6259C12.5563 31.6259 12.1906 31.4745 11.921 31.2049C11.6515 30.9353 11.5 30.5697 11.5 30.1884C11.8116 29.0896 12.2969 28.0477 12.9375 27.1021C13.5781 28.0477 14.0634 29.0896 14.375 30.1884C14.375 30.5697 14.2235 30.9353 13.954 31.2049C13.6844 31.4745 13.3187 31.6259 12.9375 31.6259Z" fill="#3A3A3A"/>
<path d="M35.9375 23C35.9375 21.8563 35.4831 20.7594 34.6744 19.9506C33.8656 19.1419 32.7687 18.6875 31.625 18.6875C30.4813 18.6875 29.3844 19.1419 28.5756 19.9506C27.7669 20.7594 27.3125 21.8563 27.3125 23V25.5588C26.8619 25.9596 26.5009 26.4511 26.2532 27.001C26.0055 27.5509 25.8766 28.1469 25.875 28.75V38.8125C25.875 39.9562 26.3294 41.0531 27.1381 41.8619C27.9469 42.6706 29.0438 43.125 30.1875 43.125H33.0625C34.2062 43.125 35.3031 42.6706 36.1119 41.8619C36.9206 41.0531 37.375 39.9562 37.375 38.8125V28.75C37.3734 28.1469 37.2445 27.5509 36.9968 27.001C36.7491 26.4511 36.3881 25.9596 35.9375 25.5588V23ZM30.1875 23C30.1875 22.6188 30.3389 22.2531 30.6085 21.9835C30.8781 21.714 31.2438 21.5625 31.625 21.5625C32.0062 21.5625 32.3719 21.714 32.6415 21.9835C32.9111 22.2531 33.0625 22.6188 33.0625 23V24.4375H30.1875V23ZM34.5 38.8125C34.5 39.1937 34.3486 39.5594 34.079 39.829C33.8094 40.0986 33.4437 40.25 33.0625 40.25H30.1875C29.8063 40.25 29.4406 40.0986 29.171 39.829C28.9014 39.5594 28.75 39.1937 28.75 38.8125V28.75C28.75 28.3688 28.9014 28.0031 29.171 27.7335C29.4406 27.4639 29.8063 27.3125 30.1875 27.3125H33.0625C33.4437 27.3125 33.8094 27.4639 34.079 27.7335C34.3486 28.0031 34.5 28.3688 34.5 28.75V38.8125Z" fill="#3A3A3A"/>
<path d="M41.6875 2.875C41.3063 2.875 40.9406 3.02645 40.671 3.29603C40.4014 3.56562 40.25 3.93125 40.25 4.3125H35.9375C35.5563 4.3125 35.1906 4.46395 34.921 4.73353C34.6514 5.00312 34.5 5.36875 34.5 5.75V15.8125C34.5 16.1937 34.6514 16.5594 34.921 16.829C35.1906 17.0985 35.5563 17.25 35.9375 17.25H40.25V41.6875C40.25 42.0687 40.4014 42.4344 40.671 42.704C40.9406 42.9735 41.3063 43.125 41.6875 43.125C42.0687 43.125 42.4344 42.9735 42.704 42.704C42.9736 42.4344 43.125 42.0687 43.125 41.6875V4.3125C43.125 3.93125 42.9736 3.56562 42.704 3.29603C42.4344 3.02645 42.0687 2.875 41.6875 2.875ZM40.25 14.375H37.375V7.1875H40.25V14.375Z" fill="#3A3A3A"/>
</svg>
