<svg width="46" height="46" viewBox="0 0 46 46" fill="none" xmlns="http://www.w3.org/2000/svg">
<path d="M39.6012 14.4349H35.8262C35.1965 8.39832 30.3851 3.58701 24.3486 2.9573V1.34766C24.3486 0.603391 23.7452 0 23.0009 0C22.2566 0 21.6532 0.603391 21.6532 1.34766V2.9573C15.6167 3.58701 10.8053 8.39832 10.1756 14.4349H6.40084C5.58658 14.4349 4.81815 14.6336 4.13965 14.9831V7.84336C4.13965 7.09909 3.53626 6.4957 2.79199 6.4957C2.04773 6.4957 1.44434 7.09909 1.44434 7.84336V19.3912V30.9392C1.44434 33.2742 3.34408 35.1738 5.67912 35.1738C5.71119 35.1738 5.743 35.1722 5.77489 35.1715V37.7519C4.09895 38.3162 2.88795 39.9016 2.88795 41.7654C2.88795 44.1003 4.7876 46 7.12255 46C9.4575 46 11.3572 44.1003 11.3572 41.7654C11.3572 39.9015 10.1462 38.3162 8.47021 37.7519V34.12C8.50228 34.0917 8.5348 34.0637 8.56598 34.0345C9.32291 34.741 10.3383 35.1738 11.4529 35.1738C12.5675 35.1738 13.5829 34.741 14.3399 34.0345C15.0969 34.741 16.1124 35.1738 17.227 35.1738C18.3416 35.1738 19.357 34.741 20.114 34.0345C20.8709 34.741 21.8863 35.1738 23.0009 35.1738C24.1155 35.1738 25.131 34.741 25.888 34.0345C26.645 34.741 27.6604 35.1738 28.775 35.1738C29.8896 35.1738 30.905 34.741 31.6619 34.0345C32.4189 34.741 33.4343 35.1738 34.5489 35.1738C35.6635 35.1738 36.679 34.741 37.436 34.0345C37.4673 34.0637 37.4997 34.0917 37.5318 34.12V37.7519C35.8557 38.3162 34.6447 39.9015 34.6447 41.7654C34.6447 44.1003 36.5444 46 38.8794 46C41.2144 46 43.114 44.1003 43.114 41.7654C43.114 39.9015 41.903 38.3162 40.2271 37.7519V35.1715C40.259 35.1722 40.2908 35.1738 40.3229 35.1738C42.6578 35.1738 44.5575 33.2742 44.5575 30.9392V19.3912C44.5575 16.6584 42.3341 14.4349 39.6012 14.4349ZM7.12264 43.3047C6.27389 43.3047 5.58335 42.6141 5.58335 41.7654C5.58335 40.9165 6.27389 40.226 7.12264 40.226C7.97139 40.226 8.66184 40.9165 8.66184 41.7654C8.66184 42.6141 7.97139 43.3047 7.12264 43.3047ZM38.8793 43.3047C38.0305 43.3047 37.3399 42.6141 37.3399 41.7654C37.3399 40.9165 38.0305 40.226 38.8793 40.226C39.7281 40.226 40.4186 40.9165 40.4186 41.7654C40.4186 42.6141 39.7282 43.3047 38.8793 43.3047ZM23.0009 5.58235C28.1684 5.58235 32.4508 9.44536 33.1125 14.4349H12.8893C13.551 9.44536 17.8334 5.58235 23.0009 5.58235ZM41.8622 30.9392C41.8622 31.788 41.1716 32.4785 40.3229 32.4785C39.4741 32.4785 38.7836 31.788 38.7836 30.9392C38.7836 30.195 38.1802 29.5916 37.4359 29.5916C36.6917 29.5916 36.0883 30.195 36.0883 30.9392C36.0883 31.788 35.3976 32.4785 34.5488 32.4785C33.7 32.4785 33.0095 31.788 33.0095 30.9392C33.0095 30.195 32.4061 29.5916 31.6618 29.5916C30.9176 29.5916 30.3142 30.195 30.3142 30.9392C30.3142 31.788 29.6236 32.4785 28.7749 32.4785C27.9261 32.4785 27.2356 31.788 27.2356 30.9392C27.2356 30.195 26.6322 29.5916 25.8879 29.5916C25.1437 29.5916 24.5403 30.195 24.5403 30.9392C24.5403 31.788 23.8497 32.4785 23.0008 32.4785C22.1521 32.4785 21.4615 31.788 21.4615 30.9392C21.4615 30.195 20.8581 29.5916 20.1139 29.5916C19.3696 29.5916 18.7662 30.195 18.7662 30.9392C18.7662 31.788 18.0757 32.4785 17.2269 32.4785C16.3781 32.4785 15.6874 31.788 15.6874 30.9392C15.6874 30.195 15.0841 29.5916 14.3398 29.5916C13.5955 29.5916 12.9921 30.195 12.9921 30.9392C12.9921 31.788 12.3016 32.4785 11.4528 32.4785C10.6041 32.4785 9.91355 31.788 9.91355 30.9392C9.91355 30.195 9.31016 29.5916 8.56589 29.5916C7.82162 29.5916 7.21823 30.195 7.21823 30.9392C7.21823 31.788 6.5277 32.4785 5.67894 32.4785C4.8301 32.4785 4.13947 31.788 4.13947 30.9392V19.3912C4.13947 18.1446 5.1538 17.1302 6.40066 17.1302H11.4527H34.5485H39.6008C40.8476 17.1302 41.8618 18.1446 41.8618 19.3912V30.9392H41.8622Z" fill="#3A3A3A"/>
</svg>
