<svg width="46" height="46" viewBox="0 0 46 46" fill="none" xmlns="http://www.w3.org/2000/svg">
<path d="M9.57654 23.1467L9.5766 23.1466C16.9744 16.0782 29.0254 16.0782 36.4233 23.1465C37.1978 23.8933 37.1969 25.0927 36.4235 25.8308C36.035 26.2017 35.5237 26.3915 35.0113 26.3915C34.499 26.3915 33.9877 26.2017 33.5992 25.8308C27.7568 20.2548 18.2518 20.2547 12.4094 25.8306C11.6231 26.5735 10.3543 26.5728 9.57687 25.8311C8.80227 25.0844 8.80311 23.8849 9.57654 23.1467Z" fill="#3A3A3A" stroke="white" stroke-width="0.3"/>
<path d="M31.0774 29.9498L31.0776 29.95C31.9026 30.7526 31.9026 32.0574 31.0776 32.8601C30.664 33.2625 30.1204 33.4679 29.5762 33.4679C29.0321 33.4679 28.4886 33.2625 28.075 32.8602C25.2822 30.1344 20.7274 30.1343 17.9345 32.8599C17.0982 33.6653 15.7499 33.6645 14.923 32.8603C14.0973 32.0489 14.0982 30.7438 14.9228 29.9415C19.3788 25.6061 26.6302 25.6062 31.0774 29.9498Z" fill="#3A3A3A" stroke="white" stroke-width="0.3"/>
<path d="M24.6194 38.0425C24.6194 39.4254 23.4984 40.5464 22.1155 40.5464C20.7327 40.5464 19.6117 39.4254 19.6117 38.0425C19.6117 36.6597 20.7327 35.5387 22.1155 35.5387C23.4984 35.5387 24.6194 36.6597 24.6194 38.0425Z" fill="#3A3A3A" stroke="white" stroke-width="0.3"/>
<path d="M4.24984 18.7831C3.50111 18.076 3.50197 16.942 4.24951 16.2431L4.24955 16.2431C14.5889 6.58515 31.4112 6.58512 41.7506 16.243C42.4991 16.9501 42.4982 18.084 41.7507 18.7828C41.3744 19.1345 40.8788 19.315 40.3815 19.315C39.8841 19.315 39.3885 19.1345 39.0122 18.7828C30.1805 10.5267 15.8201 10.5266 6.99618 18.7826C6.23412 19.4878 5.00323 19.4871 4.24984 18.7831Z" fill="#3A3A3A" stroke="white" stroke-width="0.3"/>
</svg>
