<svg width="33" height="32" viewBox="0 0 33 32" fill="none" xmlns="http://www.w3.org/2000/svg">
<path d="M0.987305 32L3.28323 23.4708C1.43162 20.1482 0.84335 16.2711 1.62636 12.5508C2.40937 8.8305 4.51113 5.51665 7.54599 3.21731C10.5808 0.917974 14.3452 -0.212607 18.1483 0.0330315C21.9514 0.27867 25.5382 1.88405 28.2504 4.55458C30.9626 7.22511 32.6183 10.7817 32.9138 14.5716C33.2092 18.3615 32.1246 22.1306 29.8589 25.1873C27.5931 28.2439 24.2983 30.383 20.579 31.2121C16.8596 32.0412 12.9653 31.5046 9.61059 29.7009L0.987305 32ZM10.0264 26.5092L10.5597 26.8248C12.9896 28.2614 15.8277 28.8558 18.6316 28.5156C21.4356 28.1753 24.048 26.9194 26.0617 24.9436C28.0754 22.9678 29.3773 20.383 29.7644 17.5922C30.1516 14.8013 29.6023 11.961 28.2022 9.51404C26.8021 7.06704 24.6298 5.15075 22.0238 4.06379C19.4178 2.97683 16.5245 2.78026 13.7948 3.50471C11.0651 4.22917 8.65237 5.83395 6.93253 8.06898C5.21269 10.304 4.28238 13.0437 4.28657 15.8612C4.28428 18.1973 4.93202 20.4883 6.15766 22.479L6.49211 23.029L5.20856 27.7895L10.0264 26.5092Z" fill="#5C3516"/>
<path fill-rule="evenodd" clip-rule="evenodd" d="M22.9694 18.0494C22.6568 17.7978 22.2907 17.6208 21.8991 17.5317C21.5075 17.4427 21.1007 17.4439 20.7097 17.5354C20.1221 17.7789 19.7425 18.6985 19.3629 19.1583C19.2828 19.2686 19.1652 19.3459 19.032 19.3757C18.8989 19.4056 18.7594 19.386 18.6397 19.3206C16.4887 18.4803 14.6857 16.9393 13.5236 14.9478C13.4245 14.8235 13.3776 14.6658 13.3927 14.5077C13.4079 14.3496 13.484 14.2036 13.605 14.1003C14.0284 13.6822 14.3393 13.1643 14.5089 12.5946C14.5465 11.9662 14.4022 11.3403 14.0931 10.7914C13.8541 10.0219 13.3993 9.33677 12.7824 8.81688C12.4642 8.67414 12.1114 8.62628 11.7666 8.67908C11.4218 8.73187 11.0996 8.88306 10.839 9.11441C10.3866 9.50376 10.0275 9.98939 9.78811 10.5355C9.54876 11.0816 9.43528 11.6744 9.45602 12.27C9.45742 12.6045 9.49992 12.9376 9.58257 13.2618C9.79246 14.0407 10.1152 14.7849 10.5407 15.4708C10.8477 15.9961 11.1826 16.5048 11.544 16.9945C12.7187 18.6029 14.1953 19.9686 15.8918 21.0156C16.7432 21.5477 17.6531 21.9803 18.6036 22.3049C19.5909 22.7514 20.6811 22.9227 21.7582 22.8008C22.3719 22.7082 22.9534 22.4665 23.4515 22.097C23.9496 21.7276 24.349 21.2416 24.6146 20.6821C24.7706 20.344 24.818 19.9661 24.7501 19.6001C24.5874 18.8518 23.5841 18.41 22.9694 18.0494Z" fill="#5C3516"/>
</svg>
